<?xml version="1.0" encoding="UTF-8"?>
<!DOCTYPE svg PUBLIC "-//W3C//DTD SVG 1.1//EN" "http://www.w3.org/Graphics/SVG/1.1/DTD/svg11.dtd">
<!-- Creator: CorelDRAW -->
<svg xmlns="http://www.w3.org/2000/svg" xml:space="preserve" width="1.70666in" height="1.70666in" version="1.1" style="shape-rendering:geometricPrecision; text-rendering:geometricPrecision; image-rendering:optimizeQuality; fill-rule:evenodd; clip-rule:evenodd"
viewBox="0 0 1707 1707"
 xmlns:xlink="http://www.w3.org/1999/xlink">
 <defs>
  <style type="text/css">
   <![CDATA[
    .fil0 {fill:#8B000B}
    .fil1 {fill:#E4D62A}
   ]]>
  </style>
 </defs>
 <g id="Layer_x0020_1">
  <metadata id="CorelCorpID_0Corel-Layer"/>
  <path class="fil0" d="M599 1225c-6,0 -12,-2 -16,-7 -7,-7 -9,-19 -4,-28l140 -242 -37 -22c-8,-4 -12,-12 -12,-20 0,-8 4,-16 12,-20l307 -173c9,-5 20,-4 28,4 7,7 9,19 3,28l-140 242 38 22c7,4 12,12 12,20 0,9 -5,16 -12,21l-307 172c-4,2 -8,3 -12,3zm-219 76c-64,-4 -114,-57 -114,-121l0 -16 -48 -30 0 97c0,39 -31,70 -70,70l-39 0c-60,0 -109,-49 -109,-109l0 -449c0,-60 49,-109 109,-109l39 0c39,0 70,32 70,71l0 96 48 -30 0 -16c0,-63 48,-115 110,-120l113 -128c4,-5 11,-8 18,-8l81 0 -39 -48 -87 0c-39,0 -70,-31 -70,-70l0 -39c0,-60 49,-109 109,-109l598 0c60,0 109,49 109,109l0 39c0,39 -32,70 -71,70l-86 0 -40 48 82 0c7,0 13,3 18,8l112 128c62,5 111,57 111,120l0 16 83 53c7,4 11,12 11,20l0 100 57 0c9,-43 43,-77 86,-86l0 -340c0,-13 11,-24 24,-24 13,0 23,11 23,24l0 340c51,11 89,56 89,110 0,53 -38,98 -89,109l0 341c0,12 -10,23 -23,23 -13,0 -24,-11 -24,-23l0 -341c-43,-9 -77,-43 -86,-86l-57 0 0 101c0,8 -4,15 -11,19l-83 53 0 16c0,59 -43,108 -98,119l0 65c0,60 -49,110 -110,110l-483 0c-4,0 -9,-2 -13,-4l-250 -169zm954 -475l0 283 47 -30 0 -111 0 -112 -47 -30zm-947 -145c-41,0 -74,33 -74,74l0 425c0,41 33,74 74,74l825 0 0 0c42,0 75,-33 75,-74l0 -26c0,-1 0,-2 0,-3l0 -367c0,-1 0,-2 0,-3l0 -26c0,-41 -33,-74 -75,-74l0 0 -825 0zm-169 398l48 30 0 -283 -48 30 0 223zm-109 -398c-34,0 -62,28 -62,62l0 449c0,34 28,63 62,63l39 0c13,0 24,-11 24,-24l0 -139 0 -248 0 -139c0,-13 -11,-24 -24,-24l-39 0zm542 746l475 0c35,0 63,-28 63,-63l0 -63 -726 0 188 126zm-212 -793l722 0 -79 -88 -120 0 -324 0 -121 0 -78 88zm117 -229c1,0 2,0 4,0l480 0c1,0 2,0 3,0l94 0c13,0 24,-11 24,-24l0 -39c0,-34 -28,-62 -63,-62l-597 0c-35,0 -63,28 -63,62l0 39c0,13 11,24 24,24l94 0zm93 94l302 0 39 -48 -381 0 40 48zm946 403c-36,0 -65,30 -66,65l0 1 0 0 0 0c0,35 29,64 64,65 0,0 1,0 2,0 0,0 1,0 2,0 35,-1 63,-30 63,-65 0,-36 -29,-66 -65,-66zm-1131 263c-13,0 -24,-10 -24,-23l0 -349c0,-13 11,-23 24,-23 13,0 23,10 23,23l0 349c0,13 -10,23 -23,23zm672 0c-13,0 -24,-10 -24,-23l0 -349c0,-13 11,-23 24,-23 13,0 23,10 23,23l0 349c0,13 -10,23 -23,23zm-396 -259l100 58 97 -169 -197 111zm19 65l-97 169 197 -111 -100 -58z"/>
  <path class="fil1" d="M918 1050l-307 172c-4,2 -8,3 -12,3 -6,0 -12,-2 -16,-7 -7,-7 -9,-19 -4,-28l140 -242 -37 -22c-8,-4 -12,-12 -12,-20 0,-8 4,-16 12,-20l307 -173c9,-5 20,-4 28,4 7,7 9,19 3,28l-140 242 38 22c7,4 12,12 12,20 0,9 -5,16 -12,21zm-531 204l825 0 0 0c42,0 75,-33 75,-74l0 -26c0,-1 0,-2 0,-3l0 -367c0,-1 0,-2 0,-3l0 -26c0,-41 -33,-74 -75,-74l0 0 -825 0c-41,0 -74,33 -74,74l0 425c0,41 33,74 74,74zm100 -112c0,13 -10,23 -23,23 -13,0 -24,-10 -24,-23l0 -349c0,-13 11,-23 24,-23 13,0 23,10 23,23l0 349zm649 23c-13,0 -24,-10 -24,-23l0 -349c0,-13 11,-23 24,-23 13,0 23,10 23,23l0 349c0,13 -10,23 -23,23z"/>
  <path class="fil1" d="M1189 1301l-726 0 188 126 475 0c35,0 63,-28 63,-63l0 -63z"/>
  <polygon class="fil1" points="439,634 1161,634 1082,546 962,546 638,546 517,546 "/>
  <path class="fil1" d="M560 405l480 0c1,0 2,0 3,0l94 0c13,0 24,-11 24,-24l0 -39c0,-34 -28,-62 -63,-62l-597 0c-35,0 -63,28 -63,62l0 39c0,13 11,24 24,24l94 0c1,0 2,0 4,0z"/>
  <path class="fil1" d="M172 1092l0 -248 0 -139c0,-13 -11,-24 -24,-24l-39 0c-34,0 -62,28 -62,62l0 449c0,34 28,63 62,63l39 0c13,0 24,-11 24,-24l0 -139z"/>
  <polygon class="fil1" points="1334,826 1334,1109 1381,1079 1381,968 1381,856 "/>
  <polygon class="fil1" points="266,1109 266,826 218,856 218,1079 "/>
  <polygon class="fil1" points="937,795 740,906 840,964 "/>
  <polygon class="fil1" points="859,1029 759,971 662,1140 "/>
  <path class="fil1" d="M1595 902c-36,0 -65,30 -66,65l0 1 0 0 0 0c0,35 29,64 64,65l2 0 2 0c35,-1 63,-30 63,-65 0,-36 -29,-66 -65,-66z"/>
 </g>
</svg>
