<?xml version="1.0" encoding="UTF-8" standalone="no"?> <svg width="64" height="64" viewBox="0 0 64 64" fill="none" xmlns="http://www.w3.org/2000/svg">
<path d="M45.905 24.068L48 27V35L53 30L51 24L47.471 22.236" fill="#999999"/>
<path d="M47.471 22.236L51 24L53 30L49.095 33.905V27L46.308 23.597L47.471 22.236Z" fill="#808080"/>
<path d="M40.095 24.068L38 27V35L33 30L35 24L38.529 22.236" fill="#999999"/>
<path d="M32 6.344L43.707 15.05L38.051 20.707L27.672 13.328L32 6.344Z" fill="#F79B31"/>
<path d="M17.944 23.056L30.55 10.45C31.0097 9.99045 31.3744 9.44482 31.6232 8.84427C31.872 8.24373 32.0001 7.60004 32 6.95V6.95C32 5.63718 31.4785 4.37813 30.5502 3.44982C29.6219 2.52152 28.3628 2 27.05 2V2C26.4 1.99994 25.7563 2.12796 25.1557 2.37676C24.5552 2.62556 24.0095 2.99025 23.55 3.45L10.944 16.056L17.944 23.056Z" fill="#F79B31"/>
<path d="M15.9283 29.3706L8.31116 31.819L12.7244 45.5492L20.3416 43.1008L15.9283 29.3706Z" fill="#F79B31"/>
<path d="M10 32C14.4183 32 18 28.4183 18 24C18 19.5817 14.4183 16 10 16C5.58172 16 2 19.5817 2 24C2 28.4183 5.58172 32 10 32Z" fill="#808080"/>
<path d="M10 16C8.36716 15.9988 6.77347 16.4998 5.435 17.435C4.3626 18.9746 3.86584 20.8423 4.03166 22.7112C4.19749 24.5801 5.01534 26.3312 6.34206 27.6579C7.66878 28.9847 9.41985 29.8025 11.2888 29.9683C13.1577 30.1342 15.0254 29.6374 16.565 28.565C17.4003 27.3659 17.891 25.9608 17.9838 24.5023C18.0765 23.0439 17.7677 21.5879 17.091 20.2926C16.4142 18.9974 15.3954 17.9124 14.1452 17.1556C12.8951 16.3988 11.4614 15.9991 10 16V16Z" fill="#999999"/>
<path d="M7 56L10 52C10 49.6131 10.9482 47.3239 12.636 45.636C14.3239 43.9482 16.6131 43 19 43V43C21.3869 43 23.6761 43.9482 25.364 45.636C27.0518 47.3239 28 49.6131 28 52V52L31 56" fill="#F79B31"/>
<path d="M20 43.059C17.8005 43.3049 15.7687 44.3527 14.2929 46.0021C12.8171 47.6514 12.0008 49.7868 12 52L9 56H31L28 52C27.9992 49.7868 27.1829 47.6514 25.7071 46.0021C24.2313 44.3527 22.1995 43.3049 20 43.059V43.059Z" fill="#FCB732"/>
<path d="M19 43C16.6131 43 14.3239 43.9482 12.636 45.636C10.9482 47.3239 10 49.6131 10 52H28C28 49.6131 27.0518 47.3239 25.364 45.636C23.6761 43.9482 21.3869 43 19 43V43Z" fill="#808080"/>
<path d="M20 43.059C17.8005 43.3049 15.7687 44.3527 14.2929 46.0021C12.8171 47.6514 12.0008 49.7868 12 52H28C27.9992 49.7868 27.1829 47.6514 25.7071 46.0021C24.2313 44.3527 22.1995 43.3049 20 43.059V43.059Z" fill="#999999"/>
<path d="M35 56H3V62H35V56Z" fill="#4C4C4C"/>
<path d="M10 28C12.2091 28 14 26.2091 14 24C14 21.7909 12.2091 20 10 20C7.79086 20 6 21.7909 6 24C6 26.2091 7.79086 28 10 28Z" fill="#808080"/>
<path d="M43 25C45.7614 25 48 22.7614 48 20C48 17.2386 45.7614 15 43 15C40.2386 15 38 17.2386 38 20C38 22.7614 40.2386 25 43 25Z" fill="#808080"/>
<path d="M24 52C24 50.6739 23.4732 49.4021 22.5355 48.4645C21.5979 47.5268 20.3261 47 19 47C17.6739 47 16.4021 47.5268 15.4645 48.4645C14.5268 49.4021 14 50.6739 14 52" fill="#808080"/>
<path d="M50 38C47.6266 38 45.3066 38.7038 43.3332 40.0224C41.3598 41.3409 39.8217 43.2151 38.9135 45.4078C38.0052 47.6005 37.7676 50.0133 38.2306 52.3411C38.6936 54.6689 39.8365 56.8071 41.5147 58.4853C43.193 60.1635 45.3312 61.3064 47.6589 61.7694C49.9867 62.2324 52.3995 61.9948 54.5922 61.0866C56.7849 60.1783 58.6591 58.6402 59.9776 56.6668C61.2962 54.6935 62 52.3734 62 50C62 46.8174 60.7357 43.7652 58.4853 41.5147C56.2349 39.2643 53.1826 38 50 38V38ZM42 50C42 47.8783 42.8429 45.8434 44.3432 44.3431C45.8434 42.8429 47.8783 42 50 42C51.3862 41.9961 52.7488 42.3583 53.95 43.05L43.05 53.95C42.3583 52.7487 41.9961 51.3861 42 50ZM50 58C48.6139 58.0039 47.2513 57.6417 46.05 56.95L56.95 46.05C57.6417 47.2513 58.0039 48.6139 58 50C58 52.1217 57.1571 54.1566 55.6569 55.6569C54.1566 57.1571 52.1217 58 50 58Z" fill="#E73844"/>
<path d="M8 59H35V56H5C5 56.7956 5.31607 57.5587 5.87868 58.1213C6.44129 58.6839 7.20435 59 8 59V59Z" fill="#606060"/>
<path d="M19.677 41.034L16.61 31.49C14.7881 33.1074 12.4363 34.0004 10 34C9.661 34 9.326 33.982 9 33.949L11.94 43.096C14.0404 41.7276 16.4932 40.9994 19 41C19.229 41 19.451 41.023 19.677 41.034Z" fill="#FCB732"/>
<path d="M32 6.95C31.9999 5.97103 31.7096 5.01407 31.1657 4.20011C30.6217 3.38616 29.8487 2.75176 28.9442 2.37713C28.0398 2.00251 27.0446 1.90448 26.0844 2.09545C25.1242 2.28642 24.2423 2.7578 23.55 3.45L12.637 14.363C14.3109 14.8219 15.8366 15.7087 17.064 16.936C18.2913 18.1634 19.178 19.689 19.637 21.363L30.55 10.45C31.0097 9.99045 31.3744 9.44482 31.6232 8.84427C31.872 8.24373 32.0001 7.60004 32 6.95V6.95Z" fill="#FCB732"/>
<path d="M43 15C42.1684 15.0055 41.3516 15.2205 40.625 15.625C40.2205 16.3516 40.0055 17.1684 40 18C40 18.6566 40.1293 19.3068 40.3806 19.9134C40.6319 20.52 41.0002 21.0712 41.4645 21.5355C42.4021 22.4732 43.6739 23 45 23C45.8316 22.9945 46.6484 22.7795 47.375 22.375C47.7795 21.6484 47.9945 20.8316 48 20C48 19.3434 47.8707 18.6932 47.6194 18.0866C47.3681 17.48 46.9998 16.9288 46.5355 16.4645C46.0712 16.0002 45.52 15.6319 44.9134 15.3806C44.3068 15.1293 43.6566 15 43 15Z" fill="#999999"/>
<path d="M38.529 22.236L35 24L33 30L36.905 33.905V27L39.692 23.597L38.529 22.236Z" fill="#808080"/>
<path d="M50 38C47.3079 37.9983 44.6942 38.9065 42.583 40.577C40.761 42.8822 39.849 45.7762 40.0201 48.7095C40.1912 51.6428 41.4336 54.4111 43.5112 56.4888C45.5889 58.5665 48.3572 59.8088 51.2905 59.9799C54.2238 60.151 57.1178 59.239 59.423 57.417C60.8183 55.6486 61.6872 53.523 61.9303 51.2836C62.1733 49.0442 61.7806 46.7817 60.7971 44.7552C59.8137 42.7287 58.2793 41.0202 56.3697 39.8254C54.4601 38.6307 52.2525 37.9981 50 38ZM43.05 53.95C42.3583 52.7487 41.9961 51.3861 42 50C42 47.8783 42.8429 45.8434 44.3432 44.3431C45.8434 42.8429 47.8783 42 50 42C51.3862 41.9961 52.7488 42.3583 53.95 43.05L43.05 53.95ZM50 58C48.6139 58.0039 47.2513 57.6417 46.05 56.95L56.95 46.05C57.6417 47.2513 58.0039 48.6139 58 50C58 52.1217 57.1572 54.1566 55.6569 55.6569C54.1566 57.1571 52.1217 58 50 58Z" fill="#FF4D55"/>
</svg>
