<?xml version="1.0" encoding="UTF-8" standalone="no"?> <svg width="64" height="64" viewBox="0 0 64 64" fill="none" xmlns="http://www.w3.org/2000/svg">
<path d="M59 31H35V57H59V31Z" fill="#A97C50"/>
<path d="M35 57H59V33C59 39.3652 56.4714 45.4697 51.9706 49.9706C47.4697 54.4714 41.3652 57 35 57Z" fill="#8B5E3C"/>
<path d="M26 39C27.3791 38.9984 28.7157 38.5229 29.7859 37.6532C30.8562 36.7836 31.5952 35.5725 31.879 34.223L31.77 34.21C31.2821 34.1535 30.832 33.9195 30.5056 33.5525C30.1792 33.1855 29.9992 32.7112 30 32.22V28.92C28.7854 29.6267 27.4052 29.999 26 29.999C24.5948 29.999 23.2146 29.6267 22 28.92V32.22C22.0008 32.7112 21.8208 33.1855 21.4944 33.5525C21.168 33.9195 20.7179 34.1535 20.23 34.21L20.121 34.223C20.4048 35.5725 21.1438 36.7836 22.2141 37.6532C23.2843 38.5229 24.6209 38.9984 26 39V39Z" fill="#FFB8A5"/>
<path d="M20.121 34.223L17.36 34.55C13.9539 34.9485 10.8129 36.5846 8.53414 39.1473C6.25535 41.71 4.99762 45.0207 5 48.45V57H26V39C24.6209 38.9983 23.2843 38.5229 22.2141 37.6532C21.1438 36.7835 20.4048 35.5725 20.121 34.223V34.223Z" fill="#FF9811"/>
<path d="M26 39V57H35V34.6C34.88 34.58 34.76 34.56 34.64 34.55L31.879 34.223C31.5952 35.5725 30.8562 36.7835 29.7859 37.6532C28.7157 38.5229 27.3791 38.9983 26 39V39Z" fill="#EE8700"/>
<path d="M22.4 11H29.6C30.6361 11 31.6546 11.2683 32.5562 11.7788C33.4578 12.2893 34.2119 13.0245 34.745 13.913L36 16V13C36 10.3478 34.9464 7.8043 33.0711 5.92893C31.1957 4.05357 28.6522 3 26 3C23.3478 3 20.8043 4.05357 18.9289 5.92893C17.0536 7.8043 16 10.3478 16 13V16L17.252 13.913C17.7853 13.0241 18.5399 12.2886 19.4421 11.778C20.3443 11.2675 21.3634 10.9995 22.4 11Z" fill="#FF9811"/>
<path d="M47 37L50 39V31H44V39L47 37Z" fill="#FF9811"/>
<path d="M18 16V22C18 24.1217 18.8429 26.1566 20.3431 27.6569C21.8434 29.1571 23.8783 30 26 30C28.1217 30 30.1566 29.1571 31.6569 27.6569C33.1571 26.1566 34 24.1217 34 22V16H18Z" fill="#FFD2C7"/>
<path d="M61 57H3V61H61V57Z" fill="#58595B"/>
<path d="M36 16H16L17.25 13.91C17.7857 13.023 18.5412 12.2892 19.4433 11.7795C20.3454 11.2697 21.3638 11.0013 22.4 11H29.6C30.6362 11.0013 31.6546 11.2697 32.5567 11.7795C33.4588 12.2892 34.2143 13.023 34.75 13.91L36 16Z" fill="#FF6243"/>
<path d="M45 49H39V53H45V49Z" fill="#FFCD00"/>
<path d="M51.707 49.707L52 49.414V53C52 53.2652 52.1054 53.5196 52.2929 53.7071C52.4804 53.8946 52.7348 54 53 54C53.2652 54 53.5196 53.8946 53.7071 53.7071C53.8947 53.5196 54 53.2652 54 53V49.414L54.293 49.707C54.4816 49.8892 54.7342 49.99 54.9964 49.9877C55.2586 49.9854 55.5094 49.8802 55.6948 49.6948C55.8802 49.5094 55.9854 49.2586 55.9877 48.9964C55.99 48.7342 55.8892 48.4816 55.707 48.293L53.707 46.293C53.5195 46.1055 53.2652 46.0002 53 46.0002C52.7348 46.0002 52.4805 46.1055 52.293 46.293L50.293 48.293C50.1109 48.4816 50.0101 48.7342 50.0123 48.9964C50.0146 49.2586 50.1198 49.5094 50.3052 49.6948C50.4906 49.8802 50.7414 49.9854 51.0036 49.9877C51.2658 49.99 51.5184 49.8892 51.707 49.707Z" fill="#FF5023"/>
<path d="M23.707 24.293C23.5157 24.1251 23.2676 24.0365 23.0132 24.0452C22.7589 24.0539 22.5174 24.1592 22.338 24.3397C22.1586 24.5203 22.0548 24.7624 22.0477 25.0168C22.0407 25.2713 22.1309 25.5188 22.3 25.709C23.2835 26.6907 24.6164 27.242 26.006 27.242C27.3956 27.242 28.7285 26.6907 29.712 25.709C29.8045 25.6157 29.8777 25.5051 29.9275 25.3835C29.9773 25.2619 30.0026 25.1317 30.0021 25.0003C30.0015 24.8689 29.9751 24.7389 29.9243 24.6177C29.8735 24.4965 29.7993 24.3865 29.706 24.294C29.6127 24.2015 29.5021 24.1283 29.3805 24.0785C29.2589 24.0287 29.1287 24.0034 28.9973 24.0039C28.8659 24.0045 28.7359 24.0309 28.6147 24.0817C28.4935 24.1325 28.3835 24.2067 28.291 24.3C27.6829 24.9066 26.859 25.2473 26 25.2473C25.141 25.2473 24.3171 24.9066 23.709 24.3L23.707 24.293Z" fill="#6D6E71"/>
<path d="M23 21C23.2652 21 23.5196 20.8946 23.7071 20.7071C23.8946 20.5196 24 20.2652 24 20V19C24 18.7348 23.8946 18.4804 23.7071 18.2929C23.5196 18.1054 23.2652 18 23 18C22.7348 18 22.4804 18.1054 22.2929 18.2929C22.1054 18.4804 22 18.7348 22 19V20C22 20.2652 22.1054 20.5196 22.2929 20.7071C22.4804 20.8946 22.7348 21 23 21Z" fill="#6D6E71"/>
<path d="M29 21C29.2652 21 29.5196 20.8946 29.7071 20.7071C29.8946 20.5196 30 20.2652 30 20V19C30 18.7348 29.8946 18.4804 29.7071 18.2929C29.5196 18.1054 29.2652 18 29 18C28.7348 18 28.4804 18.1054 28.2929 18.2929C28.1054 18.4804 28 18.7348 28 19V20C28 20.2652 28.1054 20.5196 28.2929 20.7071C28.4804 20.8946 28.7348 21 29 21Z" fill="#6D6E71"/>
<path d="M13 47C13.2652 47 13.5196 47.1054 13.7071 47.2929C13.8946 47.4804 14 47.7348 14 48V57H12V48C12 47.7348 12.1054 47.4804 12.2929 47.2929C12.4804 47.1054 12.7348 47 13 47V47Z" fill="#EE8700"/>
<path d="M34 16H36C36.5304 16 37.0391 16.2107 37.4142 16.5858C37.7893 16.9609 38 17.4696 38 18V20C38 20.5304 37.7893 21.0391 37.4142 21.4142C37.0391 21.7893 36.5304 22 36 22H34V16Z" fill="#FFB8A5"/>
<path d="M18 22H16C15.4696 22 14.9609 21.7893 14.5858 21.4142C14.2107 21.0391 14 20.5304 14 20V18C14 17.4696 14.2107 16.9609 14.5858 16.5858C14.9609 16.2107 15.4696 16 16 16H18V22Z" fill="#FFB8A5"/>
</svg>
