<?xml version="1.0" encoding="utf-8"?>
<!-- Generator: Adobe Illustrator 25.2.3, SVG Export Plug-In . SVG Version: 6.00 Build 0)  -->
<svg version="1.1" id="Gradient" xmlns="http://www.w3.org/2000/svg" xmlns:xlink="http://www.w3.org/1999/xlink" x="0px" y="0px"
	 viewBox="0 0 512 512" enable-background="new 0 0 512 512" xml:space="preserve">
<g>
	<path fill="#FBDE08" d="M287.302,82v8c0,4.4-3.6,8-8,8h-48c-4.4,0-8-3.6-8-8v-8c0-4.4,3.6-8,8-8h48
		C283.702,74,287.302,77.6,287.302,82z"/>
	<rect x="231.302" y="98" fill="#FFC008" width="48" height="56"/>
	<rect x="231.302" y="98" fill="#FBDE08" width="24" height="56"/>
	<path fill="#FFC008" d="M287.302,82v8c0,4.4-3.6,8-8,8h-24V74h24C283.702,74,287.302,77.6,287.302,82z"/>
	<g>
		<path fill="#FBDE08" d="M375.302,482h-240c0,0,46.24,0,94.08-69.28c5.76,8.08,15.2,13.28,25.92,13.28s20.16-5.2,25.92-13.28
			C329.062,482,375.302,482,375.302,482z"/>
		<path fill="#FBDE08" d="M271.302,154v212.32c-4.72-2.72-10.16-4.32-16-4.32s-11.28,1.6-16,4.32V154H271.302z"/>
	</g>
	<path fill="#FFF177" d="M239.302,154v212.32c4.72-2.72,10.16-4.32,16-4.32V154H239.302z"/>
	<g>
		<path fill="#FFF177" d="M209.782,482h21.36c13.12-17.84,21.12-37.36,24.16-56.08c-0.32,0.08-0.56,0.08-0.88,0.08
			c-5.52,0-10.72-1.44-15.2-3.84c-2.72,17.2-10.48,35.6-23.2,52.32C214.022,477.12,212.022,479.6,209.782,482z"/>
	</g>
	<circle fill="#FBDE08" cx="255.302" cy="42" r="32"/>
	<path fill="#FFC008" d="M287.302,42c0,17.68-14.32,32-32,32c-11.44,0-21.44-6-27.04-14.96c4.08,1.92,8.56,2.96,13.28,2.96
		c17.68,0,32-14.32,32-32c0-6.24-1.84-12.08-4.96-17.04C279.622,17.92,287.302,29.04,287.302,42z"/>
	<path fill="#FFC008" d="M255.302,362c17.68,0,32,14.32,32,32c0,8.8-3.6,16.8-9.36,22.64c-5.84,5.76-13.84,9.36-22.64,9.36
		c-8.8,0-16.8-3.6-22.64-9.36c-5.76-5.84-9.36-13.84-9.36-22.64C223.302,376.32,237.622,362,255.302,362z"/>
	<path fill="#FFA10B" d="M287.302,394c0,8.8-3.6,16.8-9.36,22.64c-5.84,5.76-13.84,9.36-22.64,9.36s-16.8-3.6-22.64-9.36
		c-1.12-1.12-2.16-2.4-3.04-3.68c3.44,1.28,7.12,2,10.96,2c8.8,0,16.8-3.6,22.64-9.28c5.76-5.92,9.36-13.92,9.36-22.72
		c0-7.12-2.32-13.68-6.24-18.96C278.582,368.48,287.302,380.24,287.302,394z"/>
	<path fill="#FFC008" d="M375.302,482c0.56,0,1.12,0.08,1.6,0.16c3.68,0.72,6.4,4,6.4,7.84v8c0,4.4-3.6,8-8,8h-240c-4.4,0-8-3.6-8-8
		v-8c0-3.84,2.72-7.12,6.4-7.84c0.48-0.08,1.04-0.16,1.6-0.16H375.302z"/>
	<path fill="#FFC008" d="M302.312,439.123c-10.573,16.783-23.774,31.486-39.283,42.877h112.272
		C375.302,482,341.782,481.838,302.312,439.123z"/>
	<path fill="#FFA10B" d="M376.902,482.16c-0.48-0.08-1.04-0.16-1.6-0.16H263.03c-17.978,13.205-39.055,21.84-62.715,24h174.988
		c4.4,0,8-3.6,8-8v-8C383.302,486.16,380.582,482.88,376.902,482.16z"/>
	<g>
		<path fill="#F9F4D2" d="M248.302,395c10.295,0,10.312-16,0-16C238.007,379,237.99,395,248.302,395L248.302,395z"/>
	</g>
	<g>
		<path fill="#F9F5E8" d="M249.302,42c10.295,0,10.312-16,0-16C239.007,26,238.99,42,249.302,42L249.302,42z"/>
	</g>
	<g>
		<polygon fill="#FFA10B" points="158.582,266 149.862,266 95.302,139.6 40.742,266 32.102,266 90.182,131.68 101.382,133.52 		"/>
		<polygon fill="#FFA10B" points="478.502,266 469.862,266 415.302,139.6 360.742,266 352.022,266 409.222,133.52 420.422,131.68 		
			"/>
	</g>
	<polygon fill="#DBE4EB" points="119.302,290 119.302,314 71.302,314 71.302,290 71.302,266 119.302,266 	"/>
	<path fill="#FFC008" d="M180.822,323.92l-4,16c-0.88,3.6-4.08,6.08-7.76,6.08H21.542c-3.68,0-6.88-2.48-7.76-6.08l-4-16
		c-1.28-5.04,2.56-9.92,7.76-9.92h155.52C178.262,314,182.102,318.88,180.822,323.92z"/>
	<polygon fill="#65BC6A" points="71.302,266 71.302,290 15.302,290 15.302,266 32.982,266 	"/>
	<polygon fill="#65BC6A" points="175.302,266 175.302,290 120.262,290 119.302,290 119.302,266 157.622,266 	"/>
	<polygon fill="#398F3E" points="17.542,314 15.302,314 15.302,290 71.302,290 71.302,314 	"/>
	<g>
		<path fill="#FFA10B" d="M173.062,314h-53.76H89.677c-22.004,15.053-47.685,23.151-77.385,19.96l1.49,5.96
			c0.88,3.6,4.08,6.08,7.76,6.08h147.52c3.68,0,6.88-2.48,7.76-6.08l4-16C182.102,318.88,178.262,314,173.062,314z"/>
		<path fill="#309930" d="M157.622,266h-21.376c-5.29,7.581-10.932,14.809-16.943,21.541V290h0.96h55.04v-24H157.622z"/>
		<polygon fill="#167C16" points="120.262,290 119.302,290 119.302,314 173.062,314 175.302,314 175.302,290 		"/>
		<path fill="#A29292" d="M89.677,314h29.625v-24v-2.459C110.268,297.659,100.412,306.656,89.677,314z"/>
	</g>
	<polygon fill="#FFF177" points="71.622,314 42.182,346 20.422,346 49.862,314 	"/>
	<path fill="#FFC008" d="M493.062,314c5.2,0,9.04,4.88,7.76,9.92l-4,16c-0.88,3.6-4.08,6.08-7.76,6.08h-147.52
		c-3.68,0-6.88-2.48-7.76-6.08l-4-16c-1.28-5.04,2.56-9.92,7.76-9.92h53.76h48H493.062z"/>
	<polygon fill="#65BC6A" points="495.302,266 495.302,290 440.262,290 439.302,290 439.302,266 477.622,266 	"/>
	<polygon fill="#65BC6A" points="391.302,266 391.302,290 335.302,290 335.302,266 352.982,266 	"/>
	<polygon fill="#398F3E" points="337.542,314 335.302,314 335.302,290 391.302,290 391.302,314 	"/>
	<polygon fill="#DBE4EB" points="439.302,290 439.302,314 391.302,314 391.302,290 391.302,266 439.302,266 	"/>
	<g>
		<path fill="#FFA10B" d="M493.062,314h-53.76h-29.625c-22.004,15.053-47.685,23.151-77.385,19.96l1.49,5.96
			c0.88,3.6,4.08,6.08,7.76,6.08h147.52c3.68,0,6.88-2.48,7.76-6.08l4-16C502.102,318.88,498.262,314,493.062,314z"/>
		<path fill="#309930" d="M477.622,266h-21.376c-5.29,7.581-10.932,14.809-16.943,21.541V290h0.96h55.04v-24H477.622z"/>
		<polygon fill="#167C16" points="440.262,290 439.302,290 439.302,314 493.062,314 495.302,314 495.302,290 		"/>
		<path fill="#A29292" d="M409.677,314h29.625v-24v-2.459C430.268,297.659,420.412,306.656,409.677,314z"/>
	</g>
	<polygon fill="#FFF177" points="407.622,314 378.182,346 356.422,346 385.862,314 	"/>
	<path fill="#FFC008" d="M493.062,314c5.2,0,9.04,4.88,7.76,9.92l-4,16c-0.88,3.6-4.08,6.08-7.76,6.08h-147.52
		c-3.68,0-6.88-2.48-7.76-6.08l-4-16c-1.28-5.04,2.56-9.92,7.76-9.92h53.76h48H493.062z"/>
	<polygon fill="#65BC6A" points="495.302,266 495.302,290 440.262,290 439.302,290 439.302,266 477.622,266 	"/>
	<polygon fill="#65BC6A" points="391.302,266 391.302,290 335.302,290 335.302,266 352.982,266 	"/>
	<polygon fill="#398F3E" points="337.542,314 335.302,314 335.302,290 391.302,290 391.302,314 	"/>
	<polygon fill="#DBE4EB" points="439.302,290 439.302,314 391.302,314 391.302,290 391.302,266 439.302,266 	"/>
	<g>
		<path fill="#FFA10B" d="M493.062,314h-53.76h-29.625c-22.004,15.053-47.685,23.151-77.385,19.96l1.49,5.96
			c0.88,3.6,4.08,6.08,7.76,6.08h147.52c3.68,0,6.88-2.48,7.76-6.08l4-16C502.102,318.88,498.262,314,493.062,314z"/>
		<path fill="#309930" d="M477.622,266h-21.376c-5.29,7.581-10.932,14.809-16.943,21.541V290h0.96h55.04v-24H477.622z"/>
		<polygon fill="#167C16" points="440.262,290 439.302,290 439.302,314 493.062,314 495.302,314 495.302,290 		"/>
		<path fill="#A29292" d="M409.677,314h29.625v-24v-2.459C430.268,297.659,420.412,306.656,409.677,314z"/>
	</g>
	<polygon fill="#FFF177" points="391.622,314 362.182,346 340.422,346 369.862,314 	"/>
	<polygon fill="#FFF177" points="231.302,98 231.302,154 79.302,130 	"/>
	<polygon fill="#FBDE08" points="431.302,130 279.302,154 279.302,98 	"/>
	<path fill="#FFC008" d="M431.302,130l-65.61-13.812c-24.458,18.715-55.252,29.262-86.39,37.638V154L431.302,130z"/>
</g>
</svg>
